<svg width="18" height="18" viewBox="0 0 18 18" fill="none" xmlns="http://www.w3.org/2000/svg">
<path d="M13.939 12.1849C13.939 12.4144 13.7529 12.6004 13.5234 12.6004C13.294 12.6004 13.1079 12.4144 13.1079 12.1849C13.1079 12.1873 13.1079 12.1886 13.108 12.1886C13.109 12.1887 13.1224 12.075 13.2938 11.8179C13.3559 11.7249 13.432 11.6229 13.5234 11.5118C13.6149 11.6229 13.691 11.7249 13.753 11.8179C13.9245 12.075 13.9379 12.1887 13.9389 12.1886C13.939 12.1886 13.939 12.1873 13.939 12.1849Z" fill="#344054" stroke="#344054" stroke-width="2"/>
<path d="M7.80957 2.45473L9.06072 3.7059" stroke="#344054" stroke-width="2" stroke-linecap="round"/>
<path d="M8.81026 3.45566L3.30518 8.96077L7.30889 12.9645L12.814 7.45936L8.81026 3.45566Z" stroke="#344054" stroke-width="2" stroke-linejoin="round"/>
<path d="M4.67627 7.61037L10.6785 9.58375" stroke="#344054" stroke-width="2" stroke-linecap="round"/>
<path d="M1.84521 15.7237H16.0005" stroke="#344054" stroke-width="1.41553" stroke-linecap="round"/>
</svg>
